<svg version="1.1" id="Layer_1" xmlns="http://www.w3.org/2000/svg" xmlns:xlink="http://www.w3.org/1999/xlink" x="0px" y="0px"
	 width="100%" viewBox="0 0 512 512" enable-background="new 0 0 512 512" xml:space="preserve">
<path fill="#000000" opacity="1.000000" stroke="none" 
	d="
M513.000000,192.000000 
	C513.000000,299.307251 513.000000,406.114502 513.000000,512.960876 
	C342.401062,512.960876 171.802139,512.960876 1.101599,512.960876 
	C1.101599,342.442780 1.101599,171.885468 1.101599,1.164083 
	C171.666534,1.164083 342.333252,1.164083 513.000000,1.164083 
	C513.000000,64.531158 513.000000,128.015579 513.000000,192.000000 
M365.981262,36.493462 
	C363.404572,35.359505 360.799591,34.285458 358.255554,33.082436 
	C329.235046,19.359173 298.436066,12.446838 266.590271,11.301061 
	C250.115875,10.708328 233.348679,11.881633 217.042755,14.393062 
	C188.872604,18.731812 162.176880,28.125538 137.274765,42.310871 
	C112.410736,56.474491 90.364456,73.978508 71.653221,95.737259 
	C55.866562,114.095116 42.931080,134.119141 32.828468,156.159485 
	C19.521660,185.190262 12.459827,215.718903 11.300976,247.383713 
	C10.698027,263.858887 11.870756,280.631500 14.392664,296.937042 
	C18.773569,325.262024 28.293518,352.057953 42.513348,377.134735 
	C57.494801,403.554718 76.424149,426.687012 99.759537,446.019165 
	C119.506493,462.378510 141.284454,475.529236 165.198334,485.143860 
	C187.189209,493.985321 209.981750,499.533966 233.447922,501.755859 
	C246.083145,502.952179 258.939301,502.418976 271.663055,501.885864 
	C281.884399,501.457642 292.172119,500.487793 302.228149,498.651154 
	C328.498199,493.853119 353.312134,484.823425 376.666626,471.739319 
	C403.309540,456.812958 426.510773,437.706604 445.988190,414.287079 
	C462.389404,394.566376 475.499969,372.754578 485.114136,348.854858 
	C496.368011,320.879059 502.293274,291.793060 502.791870,261.767151 
	C503.016296,248.254120 501.481232,234.654160 499.959717,221.182281 
	C497.106445,195.918518 489.194977,172.038727 478.032837,149.311600 
	C463.316467,119.347733 443.407043,93.321388 418.048401,71.420357 
	C402.268829,57.792294 385.147522,46.338280 365.981262,36.493462 
z"/>
<path fill="#323A5A" opacity="1.000000" stroke="none" 
	d="
M366.308228,36.679291 
	C385.147522,46.338280 402.268829,57.792294 418.048401,71.420357 
	C443.407043,93.321388 463.316467,119.347733 478.032837,149.311600 
	C489.194977,172.038727 497.106445,195.918518 499.959717,221.182281 
	C501.481232,234.654160 503.016296,248.254120 502.791870,261.767151 
	C502.293274,291.793060 496.368011,320.879059 485.114136,348.854858 
	C475.499969,372.754578 462.389404,394.566376 445.988190,414.287079 
	C426.510773,437.706604 403.309540,456.812958 376.666626,471.739319 
	C353.312134,484.823425 328.498199,493.853119 302.228149,498.651154 
	C292.172119,500.487793 281.884399,501.457642 271.663055,501.885864 
	C258.939301,502.418976 246.083145,502.952179 233.447922,501.755859 
	C209.981750,499.533966 187.189209,493.985321 165.198334,485.143860 
	C141.284454,475.529236 119.506493,462.378510 99.759537,446.019165 
	C76.424149,426.687012 57.494801,403.554718 42.513348,377.134735 
	C28.293518,352.057953 18.773569,325.262024 14.392664,296.937042 
	C11.870756,280.631500 10.698027,263.858887 11.300976,247.383713 
	C12.459827,215.718903 19.521660,185.190262 32.828468,156.159485 
	C42.931080,134.119141 55.866562,114.095116 71.653221,95.737259 
	C90.364456,73.978508 112.410736,56.474491 137.274765,42.310871 
	C162.176880,28.125538 188.872604,18.731812 217.042755,14.393062 
	C233.348679,11.881633 250.115875,10.708328 266.590271,11.301061 
	C298.436066,12.446838 329.235046,19.359173 358.255554,33.082436 
	C360.799591,34.285458 363.404572,35.359505 366.308228,36.679291 
M431.367096,203.640091 
	C446.783112,209.139893 462.199127,214.639694 477.854492,220.224884 
	C477.372742,217.495102 476.949158,214.563843 476.331512,211.674057 
	C465.471069,160.860382 440.214661,118.539093 400.447632,85.204575 
	C365.872894,56.222424 326.022888,39.053955 280.074738,34.259811 
	C118.413956,19.289749 11.627503,165.529572 36.354713,290.684052 
	C38.125187,289.439362 39.756966,288.367920 41.308331,287.190521 
	C82.963333,255.576355 127.714058,229.620499 177.502899,212.962372 
	C181.287903,211.695999 182.558594,209.758850 182.883591,205.948288 
	C188.991364,134.338150 269.345947,94.660187 329.826813,133.403015 
	C350.282959,146.506821 363.785126,164.935532 370.822662,188.201553 
	C371.367828,190.003830 373.274780,192.391495 374.905060,192.715714 
	C393.485901,196.410797 412.136078,199.757339 431.367096,203.640091 
M436.381775,227.641052 
	C416.356293,220.781387 395.753021,216.692993 374.702209,214.328476 
	C373.981476,268.953339 330.934204,305.425476 289.471008,309.710571 
	C269.222198,311.803223 249.957489,308.399200 232.123642,298.380859 
	C206.461563,283.964844 190.757538,261.987305 184.017883,233.270981 
	C182.538055,233.744888 181.452606,234.064758 180.385849,234.438065 
	C129.865021,252.117157 84.955536,279.623047 43.172554,312.647308 
	C40.817875,314.508392 40.944683,316.132935 41.680161,318.625214 
	C57.278751,371.484131 88.070511,413.236603 133.771790,443.846924 
	C167.422272,466.385742 204.766922,478.568542 245.162506,480.554077 
	C258.044922,481.187286 271.040009,479.528198 284.837463,479.080750 
	C306.182190,476.802429 326.749634,471.319031 346.170105,462.346954 
	C418.498566,428.931763 462.518433,373.018921 477.727814,294.743469 
	C480.810211,278.879883 481.660461,262.745636 480.684692,246.854752 
	C477.688232,245.360992 475.082703,243.878433 472.338562,242.726028 
	C460.576752,237.786728 448.774170,232.944641 436.381775,227.641052 
M268.979279,140.188553 
	C267.998535,140.377563 267.020386,140.581421 266.036682,140.753433 
	C224.858398,147.954102 197.825943,186.119156 204.846191,227.147186 
	C212.103485,269.560669 253.895111,296.933563 296.061127,286.891632 
	C337.700653,276.975098 362.547272,232.686600 349.535950,191.785614 
	C340.084747,162.075623 310.365784,136.187225 268.979279,140.188553 
z"/>
<path fill="#FFFFFF" opacity="1.000000" stroke="none" 
	d="
M283.983551,478.917969 
	C271.040009,479.528198 258.044922,481.187286 245.162506,480.554077 
	C204.766922,478.568542 167.422272,466.385742 133.771790,443.846924 
	C88.070511,413.236603 57.278751,371.484131 41.680161,318.625214 
	C40.944683,316.132935 40.817875,314.508392 43.172554,312.647308 
	C84.955536,279.623047 129.865021,252.117157 180.385849,234.438065 
	C181.452606,234.064758 182.538055,233.744888 184.017883,233.270981 
	C190.757538,261.987305 206.461563,283.964844 232.123642,298.380859 
	C249.957489,308.399200 269.222198,311.803223 289.471008,309.710571 
	C330.934204,305.425476 373.981476,268.953339 374.702209,214.328476 
	C395.753021,216.692993 416.356293,220.781387 436.677368,228.309692 
	C437.300323,233.278091 437.738617,237.572723 437.937317,241.878403 
	C439.361145,272.728760 436.152283,303.036194 425.975830,332.291382 
	C412.504181,371.019623 390.822113,404.331360 359.995636,431.730347 
	C338.461243,450.870453 314.439209,465.585846 287.672028,476.021423 
	C286.277985,476.564911 285.205658,477.933533 283.983551,478.917969 
z"/>
<path fill="#DF2C2C" opacity="1.000000" stroke="none" 
	d="
M430.767731,203.197006 
	C412.136078,199.757339 393.485901,196.410797 374.905060,192.715714 
	C373.274780,192.391495 371.367828,190.003830 370.822662,188.201553 
	C363.785126,164.935532 350.282959,146.506821 329.826813,133.403015 
	C269.345947,94.660187 188.991364,134.338150 182.883591,205.948288 
	C182.558594,209.758850 181.287903,211.695999 177.502899,212.962372 
	C127.714058,229.620499 82.963333,255.576355 41.308331,287.190521 
	C39.756966,288.367920 38.125187,289.439362 36.354713,290.684052 
	C11.627503,165.529572 118.413956,19.289749 280.668701,34.658333 
	C287.970367,37.936207 294.759644,40.640572 301.371948,43.724438 
	C334.442261,59.147945 362.754425,80.738304 385.714203,109.201363 
	C407.126434,135.746017 422.134003,165.538452 430.842896,198.496063 
	C431.228302,199.954575 430.811096,201.625183 430.767731,203.197006 
z"/>
<path fill="#FEFEFE" opacity="1.000000" stroke="none" 
	d="
M269.437103,140.142487 
	C310.365784,136.187225 340.084747,162.075623 349.535950,191.785614 
	C362.547272,232.686600 337.700653,276.975098 296.061127,286.891632 
	C253.895111,296.933563 212.103485,269.560669 204.846191,227.147186 
	C197.825943,186.119156 224.858398,147.954102 266.036682,140.753433 
	C267.020386,140.581421 267.998535,140.377563 269.437103,140.142487 
M306.470306,199.175354 
	C297.363159,184.141464 280.781616,178.363678 265.714600,184.974136 
	C250.712204,191.556244 243.049118,207.883545 247.699234,223.358521 
	C253.062683,241.207397 272.045837,250.712326 289.428467,244.252472 
	C307.369995,237.584915 314.945435,218.267624 306.470306,199.175354 
z"/>
<path fill="#E5E5E5" opacity="1.000000" stroke="none" 
	d="
M284.410522,478.999390 
	C285.205658,477.933533 286.277985,476.564911 287.672028,476.021423 
	C314.439209,465.585846 338.461243,450.870453 359.995636,431.730347 
	C390.822113,404.331360 412.504181,371.019623 425.975830,332.291382 
	C436.152283,303.036194 439.361145,272.728760 437.937317,241.878403 
	C437.738617,237.572723 437.300323,233.278091 436.979675,228.522736 
	C448.774170,232.944641 460.576752,237.786728 472.338562,242.726028 
	C475.082703,243.878433 477.688232,245.360992 480.684692,246.854752 
	C481.660461,262.745636 480.810211,278.879883 477.727814,294.743469 
	C462.518433,373.018921 418.498566,428.931763 346.170105,462.346954 
	C326.749634,471.319031 306.182190,476.802429 284.410522,478.999390 
z"/>
<path fill="#C82828" opacity="1.000000" stroke="none" 
	d="
M431.067413,203.418549 
	C430.811096,201.625183 431.228302,199.954575 430.842896,198.496063 
	C422.134003,165.538452 407.126434,135.746017 385.714203,109.201363 
	C362.754425,80.738304 334.442261,59.147945 301.371948,43.724438 
	C294.759644,40.640572 287.970367,37.936207 281.107697,34.776527 
	C326.022888,39.053955 365.872894,56.222424 400.447632,85.204575 
	C440.214661,118.539093 465.471069,160.860382 476.331512,211.674057 
	C476.949158,214.563843 477.372742,217.495102 477.854492,220.224884 
	C462.199127,214.639694 446.783112,209.139893 431.067413,203.418549 
z"/>
<path fill="#333B5C" opacity="1.000000" stroke="none" 
	d="
M306.660461,199.500793 
	C314.945435,218.267624 307.369995,237.584915 289.428467,244.252472 
	C272.045837,250.712326 253.062683,241.207397 247.699234,223.358521 
	C243.049118,207.883545 250.712204,191.556244 265.714600,184.974136 
	C280.781616,178.363678 297.363159,184.141464 306.660461,199.500793 
M288.999207,213.659012 
	C287.652344,206.866257 284.111389,203.639603 278.113647,203.739731 
	C272.740112,203.829437 268.532867,207.480576 267.883545,212.617691 
	C267.097137,218.839401 270.858887,224.130157 276.660706,224.962402 
	C283.115936,225.888382 288.021210,221.719635 288.999207,213.659012 
z"/>
<path fill="#FCFCFD" opacity="1.000000" stroke="none" 
	d="
M289.000031,214.067078 
	C288.021210,221.719635 283.115936,225.888382 276.660706,224.962402 
	C270.858887,224.130157 267.097137,218.839401 267.883545,212.617691 
	C268.532867,207.480576 272.740112,203.829437 278.113647,203.739731 
	C284.111389,203.639603 287.652344,206.866257 289.000031,214.067078 
z"/>
</svg>